<?xml version="1.0" standalone="no"?><!DOCTYPE svg PUBLIC "-//W3C//DTD SVG 1.1//EN" "http://www.w3.org/Graphics/SVG/1.1/DTD/svg11.dtd"><svg class="icon" width="64px" height="64.00px" viewBox="0 0 1024 1024" version="1.1" xmlns="http://www.w3.org/2000/svg"><path fill="#1296db" d="M276.614 257.293c-4.287 0-8.576-1.61-11.885-4.842C148.187 138.587 144.822 80.314 144.822 74.044h34.016s0.01-0.166-0.01-0.497c0.029 0.502 4.148 51.474 109.673 154.572 6.719 6.564 6.844 17.333 0.28 24.051a16.96 16.96 0 0 1-12.167 5.123zM285.835 707.2c-2.813 0-5.666-0.699-8.294-2.171-33.44-18.727-62.895-44.006-85.18-73.105-21.459-28.021-35.529-58.414-40.688-87.892-5.518-31.532 7.507-77.159 35.735-125.181 21.742-36.988 62.445-92.542 132.88-147.149 112.588-87.287 168.57-203.76 169.122-204.926 4.018-8.486 14.155-12.116 22.643-8.103 8.488 4.012 12.122 14.138 8.115 22.629-0.604 1.279-15.11 31.792-44.432 73.876-26.991 38.74-72.254 95.066-134.606 143.407-66.163 51.295-104.167 103.088-124.397 137.504-23.844 40.564-35.64 78.725-31.553 102.08 8.975 51.286 51.752 105.133 108.98 137.181 8.196 4.59 11.119 14.954 6.529 23.15-3.116 5.566-8.897 8.7-14.854 8.7zM161.85 963.156c-0.503 0-1.01-0.022-1.521-0.067-9.356-0.829-16.27-9.086-15.44-18.442 2.413-27.231 17.725-60.149 46.812-100.635 21.997-30.615 51.85-65.332 88.73-103.186C342.83 676.78 404.96 624.866 405.58 624.35c7.215-6.014 17.939-5.039 23.953 2.177 6.013 7.216 5.039 17.939-2.176 23.954-0.609 0.507-61.571 51.458-122.754 114.279-77.769 79.852-122.457 144.803-125.832 182.889-0.783 8.845-8.207 15.507-16.921 15.507zM504.765 963.157c-8.402 0-15.709-6.226-16.84-14.782-9.608-72.716-115.333-158.302-116.4-159.157-7.324-5.877-8.502-16.58-2.628-23.906s16.572-8.509 23.901-2.637c4.791 3.838 117.451 94.981 128.85 181.245 1.229 9.312-5.321 17.858-14.634 19.089-0.755 0.099-1.506 0.148-2.249 0.148z"  /><path fill="#1296db" d="M351.819 450.306H198.722c-9.393 0-17.008-7.615-17.008-17.008s7.615-17.008 17.008-17.008h153.097c9.393 0 17.008 7.615 17.008 17.008s-7.615 17.008-17.008 17.008zM343.903 598.997H181.646c-9.393 0-17.008-7.614-17.008-17.008s7.615-17.008 17.008-17.008h162.257c9.393 0 17.008 7.614 17.008 17.008s-7.615 17.008-17.008 17.008zM458.688 887.513H194.147c-9.393 0-17.008-7.614-17.008-17.008s7.615-17.008 17.008-17.008h264.541c9.393 0 17.008 7.614 17.008 17.008s-7.615 17.008-17.008 17.008zM458.688 162.298H198.722c-9.393 0-17.008-7.615-17.008-17.008s7.615-17.008 17.008-17.008h259.966c9.393 0 17.008 7.615 17.008 17.008s-7.615 17.008-17.008 17.008zM612.394 280.898c48.887 0 94.847 19.037 129.415 53.605s53.605 80.528 53.605 129.415-19.037 94.847-53.605 129.415-80.528 53.605-129.415 53.605-94.847-19.037-129.415-53.605-53.605-80.528-53.605-129.415 19.037-94.847 53.605-129.415 80.529-53.605 129.415-53.605m0-34.016c-119.866 0-217.036 97.17-217.036 217.036s97.17 217.036 217.036 217.036 217.036-97.17 217.036-217.036-97.17-217.036-217.036-217.036z"  /><path fill="#1296db" d="M910.568 792.633a21.186 21.186 0 0 1-14.649-5.855L733.637 632.411c-8.508-8.093-8.844-21.55-0.752-30.057 8.093-8.51 21.55-8.844 30.057-0.752l162.282 154.366c8.508 8.093 8.844 21.55 0.752 30.057a21.197 21.197 0 0 1-15.408 6.608z"  /></svg>