<?xml version="1.0" standalone="no"?><!DOCTYPE svg PUBLIC "-//W3C//DTD SVG 1.1//EN" "http://www.w3.org/Graphics/SVG/1.1/DTD/svg11.dtd"><svg class="icon" width="64px" height="57.39px" viewBox="0 0 1142 1024" version="1.1" xmlns="http://www.w3.org/2000/svg"><path fill="#1296db" d="M993.507685 248.348936c-80.238221 0-149.013839 64.9249-149.013839 149.01384a152.528739 152.528739 0 0 0 106.991757 145.185509v298.050067c0 53.507073-38.216139 99.335097-80.238221 99.335096H531.197621c-30.581867 0-57.313015-19.096876-68.775618-49.656354s-11.552155-76.432279-11.552155-106.991758h152.84217c87.872494 0 156.715276-68.775618 175.767376-171.939045v-3.82833l42.022082-401.191106v-3.805943c0-103.163427-68.775618-179.595706-164.304773-179.595706h-7.634273C645.7341 11.462603 630.443167 0 615.174621 0c-22.925206 0-38.216139 15.290933-38.216139 38.216139v38.21614c0 22.925206 15.268545 38.216139 38.216139 38.216139 11.462603 0 22.925206-7.634273 30.559479-15.290933 3.82833 3.82833 7.634273 3.82833 11.462603 3.82833 57.313015 0 84.044164 49.678742 84.044164 95.529155l-38.21614 397.362775c-11.462603 45.850412-42.022082 103.163427-99.335097 103.163428H214.050679c-53.484685 0-91.790376-53.484685-99.335097-103.163428L76.499442 198.692582c0-45.850412 26.753536-95.529155 84.066552-95.529155h7.634273c7.634273 11.462603 19.119264 19.096876 34.387809 19.096876 22.925206 0 38.216139-15.268545 38.216139-38.216139V45.850412c0-22.925206-15.290933-38.216139-38.216139-38.216139-11.462603 0-22.925206 7.634273-30.581867 19.119263h-7.701436c-91.790376 0-164.304773 76.409891-164.304773 179.573319v3.82833l42.022082 401.191106c11.462603 84.044164 76.409891 171.939045 175.744988 171.939045h156.715275c0 38.216139 0 91.790376 15.290934 133.722906 19.096876 64.9249 80.238221 106.991758 145.185509 106.991758H875.008549c87.872494 0 160.476442-80.238221 160.476442-179.573318V546.376615c61.141345-15.290933 110.820088-76.409891 106.991758-149.013839 0.044776-80.238221-64.902512-149.013839-148.969064-149.01384z m38.216139 215.707384a65.641313 65.641313 0 0 1-68.775618 0 73.432301 73.432301 0 0 1-34.387809-62.865214 73.409913 73.409913 0 0 1 34.387809-62.865213 65.641313 65.641313 0 0 1 68.775618 0 73.409913 73.409913 0 0 1 34.387809 62.865213 73.432301 73.432301 0 0 1-34.387809 62.865214z" /></svg>