<?xml version="1.0" standalone="no"?><!DOCTYPE svg PUBLIC "-//W3C//DTD SVG 1.1//EN" "http://www.w3.org/Graphics/SVG/1.1/DTD/svg11.dtd"><svg class="icon" width="64px" height="64.00px" viewBox="0 0 1024 1024" version="1.1" xmlns="http://www.w3.org/2000/svg"><path fill="#1296db" d="M342.3 299.3c-21.7 0-39.2-17.6-39.2-39.2V103.2c0-21.7 17.6-39.2 39.2-39.2s39.2 17.6 39.2 39.2v156.9c0 21.7-17.5 39.2-39.2 39.2zM695.3 299.3c-21.7 0-39.2-17.6-39.2-39.2V103.2c0-21.7 17.6-39.2 39.2-39.2s39.2 17.6 39.2 39.2v156.9c0 21.7-17.5 39.2-39.2 39.2zM613 156.1H424v75.6h189v-75.6z m217.1 0h-65.9v75.6h65.9c20.8 0 37.8 16.9 37.8 37.8v577.2c0 20.8-17 37.8-37.8 37.8H193.9c-20.8 0-37.8-16.9-37.8-37.8V269.4c0-20.8 17-37.8 37.8-37.8h79V156h-79c-62.5 0-113.4 50.9-113.4 113.4v577.2c0 62.5 50.9 113.4 113.4 113.4H830c62.5 0 113.4-50.9 113.4-113.4V269.4c0-62.5-50.8-113.3-113.3-113.3M611.3 367.3c0-44-35.7-79.7-79.7-79.7s-79.7 35.7-79.7 79.7 35.7 79.7 79.7 79.7 79.7-35.7 79.7-79.7M539.5 821.4H518c-22.5 0-41.1-14.2-44.2-33.7l-16.1-187.1c-1.4-16.2 10.6-30.4 26.8-31.8 16.2-1.7 30.4 10.6 31.8 26.8L528.8 741l12.4-145.4c1.4-16.2 15.5-28.3 31.8-26.8 16.2 1.4 28.2 15.6 26.8 31.8l-15.9 185.1c-3.2 21.4-21.8 35.7-44.4 35.7zM659.7 644c-12.6 0-24.2-8.2-28.1-20.8L613.1 563c-6.6-21.5-13.7-26.5-27.7-36.5l-8-5.8c-13-9.8-15.7-28.2-5.9-41.2 9.8-13.1 28.2-15.7 41.2-5.9l6.9 5c17.5 12.5 37.4 26.6 49.8 67.2l18.5 60.2c4.8 15.5-4 32-19.5 36.8-3 0.8-5.9 1.2-8.7 1.2zM400.8 644c-2.9 0-5.8-0.4-8.7-1.3-15.5-4.8-24.2-21.2-19.5-36.8l18.5-60.2c12.5-40.6 32.3-54.7 49.8-67.2l6.9-5c12.9-9.7 31.4-7.1 41.2 5.9 9.7 13 7.1 31.4-5.9 41.2l-8 5.8c-14.1 10-21.1 15-27.7 36.5l-18.5 60.2c-3.9 12.8-15.5 20.9-28.1 20.9z" /></svg>