<?xml version="1.0" standalone="no"?><!DOCTYPE svg PUBLIC "-//W3C//DTD SVG 1.1//EN" "http://www.w3.org/Graphics/SVG/1.1/DTD/svg11.dtd"><svg class="icon" width="64px" height="64.00px" viewBox="0 0 1024 1024" version="1.1" xmlns="http://www.w3.org/2000/svg"><path fill="#1296db" d="M512 0a512 512 0 1 0 512 512A512 512 0 0 0 512 0z m0 960a448 448 0 1 1 448-448 448 448 0 0 1-448 448z"  /><path fill="#1296db" d="M624 269.12a138.08 138.08 0 0 0-195.04 0L233.76 464A137.92 137.92 0 0 0 428.8 659.2L624 464a138.08 138.08 0 0 0 0-194.88zM389.44 619.68a82.24 82.24 0 0 1-116.16-116.16l77.28-77.28 116.16 116.16z m108.8-288l-74.24 72.8-19.2-18.72 74.24-72.32a66.08 66.08 0 0 1 69.6-19.68 57.76 57.76 0 0 1 11.68 5.92 101.44 101.44 0 0 0-62.08 32.48zM664 557.28c-96 0-172.48 35.52-172.48 80v80c0 43.84 77.28 80 172.48 80s172.48-35.52 172.48-80v-80c0-45.28-77.12-80-172.48-80z m126.88 80c0 24-56.8 43.52-126.88 43.52a342.24 342.24 0 0 1-52-3.84l160-62.08a29.12 29.12 0 0 1 18.88 21.6z m-126.88-44.32a330.72 330.72 0 0 1 61.76 5.6l-164.48 64c-15.2-7.2-24.16-16-24.16-25.6 0-24.48 56.8-44 126.88-44z m0 166.4c-70.08 0-126.88-19.52-126.88-43.52v-25.76a292.48 292.48 0 0 0 126.88 25.76 292.64 292.64 0 0 0 126.88-25.76v25.76c0 24-56.8 43.52-126.88 43.52z"  /></svg>